<svg xmlns="http://www.w3.org/2000/svg" width="272.183" height="53.893" viewBox="0 0 272.183 53.893">
  <path id="Trazado_1" data-name="Trazado 1" d="M1650.265,985.22h10.346l-15.292,35.888h-8.85l-6.7-16.919q-.781-1.952-1.595-4.181t-1.236-3.5l-.455-1.237h-.294q-1.593,4.555-3.318,8.915l-6.7,16.919h-8.85L1591.7,985.22h10.347l6.475,16.073,3.351,8.915h.293q1.594-4.62,3.319-8.98l6.214-15.78h9.24l6.279,15.813q.781,1.918,1.611,4.164t1.253,3.514l.455,1.269h.293q1.529-4.523,3.221-8.947Zm48.646,3.872q5.663,5.076,5.661,14.088,0,.684-.162,2.375h-32.894q.487,4.914,3.579,7.337t8.394,2.424a17.821,17.821,0,0,0,4.538-.52,9.312,9.312,0,0,0,3.124-1.367,7.713,7.713,0,0,0,1.773-1.724,5.339,5.339,0,0,0,.846-1.822h10.347a13.113,13.113,0,0,1-1.025,3.627,11.786,11.786,0,0,1-2.359,3.352,15.134,15.134,0,0,1-3.856,2.831,21.981,21.981,0,0,1-5.693,1.9,37.84,37.84,0,0,1-7.695.715q-10.314,0-16.024-5.043t-5.71-14.088q0-9.012,5.661-14.088t15.748-5.075Q1693.248,984.017,1698.911,989.092Zm-4.425,9.761a9.441,9.441,0,0,0-3.855-5.873,15.15,15.15,0,0,0-14.934,0,9.443,9.443,0,0,0-3.856,5.873Zm117.53-9.761q5.661,5.076,5.661,14.088,0,.684-.162,2.375h-32.9q.489,4.914,3.579,7.337t8.4,2.424a17.842,17.842,0,0,0,4.539-.52,9.316,9.316,0,0,0,3.123-1.367,7.716,7.716,0,0,0,1.773-1.724,5.3,5.3,0,0,0,.846-1.822h10.346a13.112,13.112,0,0,1-1.024,3.627,11.786,11.786,0,0,1-2.359,3.352,15.135,15.135,0,0,1-3.856,2.831,21.984,21.984,0,0,1-5.693,1.9,37.854,37.854,0,0,1-7.695.715q-10.314,0-16.025-5.043t-5.709-14.088q0-9.012,5.661-14.088t15.747-5.075Q1806.356,984.017,1812.016,989.092Zm-4.425,9.761a9.439,9.439,0,0,0-3.856-5.873,15.15,15.15,0,0,0-14.934,0,9.441,9.441,0,0,0-3.855,5.873Zm-94.577-11.824a7,7,0,0,0-1.794,5.169v28.91h9.844V993.461h19.206v-8.226h-22.086A7,7,0,0,0,1713.014,987.029Zm39.037-16.817a7,7,0,0,0-1.794,5.17v9.853h-7.034v8.226h7.034v27.647h9.844V993.461h13.228v-8.226H1760.1v-8.59h14.634v-8.227h-17.514A7,7,0,0,0,1752.051,970.212Zm110.037,16.817a7,7,0,0,0-5.17-1.794h-23.067v-.015h-9.435v35.888h9.435V993.461h20.187v27.647h9.844V992.2A7,7,0,0,0,1862.088,987.029Z" transform="translate(-1591.699 -968.418)" fill="#fff"/>
</svg>
